<mxfile host="app.diagrams.net" modified="2021-08-25T22:48:57.927Z" agent="5.0 (Windows NT 10.0; WOW64) AppleWebKit/537.36 (KHTML, like Gecko) Chrome/92.0.4515.159 Safari/537.36" etag="yX6XHnsGuHwCtowPPKcP" version="14.9.9" type="github">
  <diagram id="C5RBs43oDa-KdzZeNtuy" name="Page-1">
    <mxGraphModel dx="868" dy="482" grid="1" gridSize="10" guides="1" tooltips="1" connect="1" arrows="1" fold="1" page="1" pageScale="1" pageWidth="827" pageHeight="1169" background="none" math="0" shadow="0">
      <root>
        <mxCell id="WIyWlLk6GJQsqaUBKTNV-0" />
        <mxCell id="WIyWlLk6GJQsqaUBKTNV-1" parent="WIyWlLk6GJQsqaUBKTNV-0" />
        <mxCell id="G8KtCLC6d5U8vp29H0CE-4" style="edgeStyle=orthogonalEdgeStyle;rounded=0;orthogonalLoop=1;jettySize=auto;html=1;exitX=0.5;exitY=1;exitDx=0;exitDy=0;exitPerimeter=0;entryX=0.5;entryY=0;entryDx=0;entryDy=0;entryPerimeter=0;" edge="1" parent="WIyWlLk6GJQsqaUBKTNV-1" source="G8KtCLC6d5U8vp29H0CE-0" target="G8KtCLC6d5U8vp29H0CE-2">
          <mxGeometry relative="1" as="geometry" />
        </mxCell>
        <mxCell id="G8KtCLC6d5U8vp29H0CE-0" value="Cadastro de Eventos&lt;br&gt;" style="strokeWidth=2;html=1;shape=mxgraph.flowchart.start_1;whiteSpace=wrap;" vertex="1" parent="WIyWlLk6GJQsqaUBKTNV-1">
          <mxGeometry x="330" y="60" width="140" height="60" as="geometry" />
        </mxCell>
        <mxCell id="G8KtCLC6d5U8vp29H0CE-12" style="edgeStyle=orthogonalEdgeStyle;rounded=0;orthogonalLoop=1;jettySize=auto;html=1;exitX=1;exitY=0.5;exitDx=0;exitDy=0;exitPerimeter=0;" edge="1" parent="WIyWlLk6GJQsqaUBKTNV-1" source="G8KtCLC6d5U8vp29H0CE-2">
          <mxGeometry relative="1" as="geometry">
            <mxPoint x="600" y="280" as="targetPoint" />
          </mxGeometry>
        </mxCell>
        <mxCell id="G8KtCLC6d5U8vp29H0CE-15" style="edgeStyle=orthogonalEdgeStyle;rounded=0;orthogonalLoop=1;jettySize=auto;html=1;exitX=0;exitY=0.5;exitDx=0;exitDy=0;exitPerimeter=0;entryX=0.5;entryY=0;entryDx=0;entryDy=0;entryPerimeter=0;" edge="1" parent="WIyWlLk6GJQsqaUBKTNV-1" source="G8KtCLC6d5U8vp29H0CE-2" target="G8KtCLC6d5U8vp29H0CE-13">
          <mxGeometry relative="1" as="geometry" />
        </mxCell>
        <mxCell id="G8KtCLC6d5U8vp29H0CE-2" value="&lt;font style=&quot;vertical-align: inherit&quot;&gt;&lt;font style=&quot;vertical-align: inherit&quot;&gt;Data posterior a atual?&lt;/font&gt;&lt;/font&gt;" style="strokeWidth=2;html=1;shape=mxgraph.flowchart.decision;whiteSpace=wrap;" vertex="1" parent="WIyWlLk6GJQsqaUBKTNV-1">
          <mxGeometry x="290" y="170" width="220" height="100" as="geometry" />
        </mxCell>
        <mxCell id="G8KtCLC6d5U8vp29H0CE-19" style="edgeStyle=orthogonalEdgeStyle;rounded=0;orthogonalLoop=1;jettySize=auto;html=1;exitX=0.5;exitY=1;exitDx=0;exitDy=0;exitPerimeter=0;" edge="1" parent="WIyWlLk6GJQsqaUBKTNV-1" source="G8KtCLC6d5U8vp29H0CE-13">
          <mxGeometry relative="1" as="geometry">
            <mxPoint x="390" y="420" as="targetPoint" />
          </mxGeometry>
        </mxCell>
        <mxCell id="G8KtCLC6d5U8vp29H0CE-13" value="&lt;font style=&quot;vertical-align: inherit&quot;&gt;&lt;font style=&quot;vertical-align: inherit&quot;&gt;Faça o cadastro&lt;/font&gt;&lt;/font&gt;" style="strokeWidth=2;html=1;shape=mxgraph.flowchart.display;whiteSpace=wrap;" vertex="1" parent="WIyWlLk6GJQsqaUBKTNV-1">
          <mxGeometry x="120" y="280" width="140" height="60" as="geometry" />
        </mxCell>
        <mxCell id="G8KtCLC6d5U8vp29H0CE-14" value="&lt;font style=&quot;vertical-align: inherit&quot;&gt;&lt;font style=&quot;vertical-align: inherit&quot;&gt;Data inválida&lt;/font&gt;&lt;/font&gt;" style="strokeWidth=2;html=1;shape=mxgraph.flowchart.display;whiteSpace=wrap;" vertex="1" parent="WIyWlLk6GJQsqaUBKTNV-1">
          <mxGeometry x="510" y="280" width="150" height="60" as="geometry" />
        </mxCell>
        <mxCell id="G8KtCLC6d5U8vp29H0CE-16" value="&lt;font style=&quot;vertical-align: inherit&quot;&gt;&lt;font style=&quot;vertical-align: inherit&quot;&gt;SIM&lt;br&gt;&lt;br&gt;&lt;/font&gt;&lt;/font&gt;" style="text;html=1;align=center;verticalAlign=middle;resizable=0;points=[];autosize=1;strokeColor=none;" vertex="1" parent="WIyWlLk6GJQsqaUBKTNV-1">
          <mxGeometry x="190" y="225" width="40" height="30" as="geometry" />
        </mxCell>
        <mxCell id="G8KtCLC6d5U8vp29H0CE-18" value="&lt;font style=&quot;vertical-align: inherit&quot;&gt;&lt;font style=&quot;vertical-align: inherit&quot;&gt;NÃO&lt;br&gt;&lt;br&gt;&lt;/font&gt;&lt;/font&gt;" style="text;html=1;align=center;verticalAlign=middle;resizable=0;points=[];autosize=1;strokeColor=none;" vertex="1" parent="WIyWlLk6GJQsqaUBKTNV-1">
          <mxGeometry x="540" y="225" width="40" height="30" as="geometry" />
        </mxCell>
        <mxCell id="G8KtCLC6d5U8vp29H0CE-21" style="edgeStyle=orthogonalEdgeStyle;rounded=0;orthogonalLoop=1;jettySize=auto;html=1;exitX=0.5;exitY=1;exitDx=0;exitDy=0;exitPerimeter=0;" edge="1" parent="WIyWlLk6GJQsqaUBKTNV-1" source="G8KtCLC6d5U8vp29H0CE-20">
          <mxGeometry relative="1" as="geometry">
            <mxPoint x="395" y="550" as="targetPoint" />
          </mxGeometry>
        </mxCell>
        <mxCell id="G8KtCLC6d5U8vp29H0CE-20" value="&lt;font style=&quot;vertical-align: inherit&quot;&gt;&lt;font style=&quot;vertical-align: inherit&quot;&gt;Nome&lt;br&gt;Idade&lt;br&gt;&lt;br&gt;&lt;/font&gt;&lt;/font&gt;" style="strokeWidth=2;html=1;shape=mxgraph.flowchart.display;whiteSpace=wrap;" vertex="1" parent="WIyWlLk6GJQsqaUBKTNV-1">
          <mxGeometry x="310" y="420" width="170" height="70" as="geometry" />
        </mxCell>
        <mxCell id="G8KtCLC6d5U8vp29H0CE-29" style="edgeStyle=orthogonalEdgeStyle;rounded=0;orthogonalLoop=1;jettySize=auto;html=1;exitX=0.5;exitY=1;exitDx=0;exitDy=0;exitPerimeter=0;" edge="1" parent="WIyWlLk6GJQsqaUBKTNV-1" source="G8KtCLC6d5U8vp29H0CE-28">
          <mxGeometry relative="1" as="geometry">
            <mxPoint x="395" y="690" as="targetPoint" />
          </mxGeometry>
        </mxCell>
        <mxCell id="G8KtCLC6d5U8vp29H0CE-28" value="&lt;font style=&quot;vertical-align: inherit&quot;&gt;&lt;font style=&quot;vertical-align: inherit&quot;&gt;Maior que 18 ?&lt;/font&gt;&lt;/font&gt;" style="strokeWidth=2;html=1;shape=mxgraph.flowchart.decision;whiteSpace=wrap;" vertex="1" parent="WIyWlLk6GJQsqaUBKTNV-1">
          <mxGeometry x="280" y="550" width="230" height="100" as="geometry" />
        </mxCell>
        <mxCell id="G8KtCLC6d5U8vp29H0CE-32" style="edgeStyle=orthogonalEdgeStyle;rounded=0;orthogonalLoop=1;jettySize=auto;html=1;exitX=1;exitY=0.5;exitDx=0;exitDy=0;" edge="1" parent="WIyWlLk6GJQsqaUBKTNV-1" source="G8KtCLC6d5U8vp29H0CE-30">
          <mxGeometry relative="1" as="geometry">
            <mxPoint x="600" y="800" as="targetPoint" />
          </mxGeometry>
        </mxCell>
        <mxCell id="G8KtCLC6d5U8vp29H0CE-33" style="edgeStyle=orthogonalEdgeStyle;rounded=0;orthogonalLoop=1;jettySize=auto;html=1;" edge="1" parent="WIyWlLk6GJQsqaUBKTNV-1">
          <mxGeometry relative="1" as="geometry">
            <mxPoint x="190" y="800" as="targetPoint" />
            <mxPoint x="260" y="740" as="sourcePoint" />
          </mxGeometry>
        </mxCell>
        <mxCell id="G8KtCLC6d5U8vp29H0CE-30" value="&lt;font style=&quot;vertical-align: inherit&quot;&gt;&lt;font style=&quot;vertical-align: inherit&quot;&gt;&amp;gt;= 18 anos&lt;/font&gt;&lt;/font&gt;" style="rounded=1;whiteSpace=wrap;html=1;absoluteArcSize=1;arcSize=14;strokeWidth=2;" vertex="1" parent="WIyWlLk6GJQsqaUBKTNV-1">
          <mxGeometry x="270" y="690" width="250" height="100" as="geometry" />
        </mxCell>
        <mxCell id="G8KtCLC6d5U8vp29H0CE-34" value="&lt;font style=&quot;vertical-align: inherit&quot;&gt;&lt;font style=&quot;vertical-align: inherit&quot;&gt;Sim&lt;/font&gt;&lt;/font&gt;" style="text;html=1;align=center;verticalAlign=middle;resizable=0;points=[];autosize=1;strokeColor=none;" vertex="1" parent="WIyWlLk6GJQsqaUBKTNV-1">
          <mxGeometry x="180" y="740" width="40" height="20" as="geometry" />
        </mxCell>
        <mxCell id="G8KtCLC6d5U8vp29H0CE-35" value="&lt;font style=&quot;vertical-align: inherit&quot;&gt;&lt;font style=&quot;vertical-align: inherit&quot;&gt;Não&lt;/font&gt;&lt;/font&gt;" style="text;html=1;align=center;verticalAlign=middle;resizable=0;points=[];autosize=1;strokeColor=none;" vertex="1" parent="WIyWlLk6GJQsqaUBKTNV-1">
          <mxGeometry x="570" y="740" width="40" height="20" as="geometry" />
        </mxCell>
        <mxCell id="G8KtCLC6d5U8vp29H0CE-41" style="edgeStyle=orthogonalEdgeStyle;rounded=0;orthogonalLoop=1;jettySize=auto;html=1;exitX=0.5;exitY=1;exitDx=0;exitDy=0;exitPerimeter=0;" edge="1" parent="WIyWlLk6GJQsqaUBKTNV-1" source="G8KtCLC6d5U8vp29H0CE-36">
          <mxGeometry relative="1" as="geometry">
            <mxPoint x="400" y="930" as="targetPoint" />
          </mxGeometry>
        </mxCell>
        <mxCell id="G8KtCLC6d5U8vp29H0CE-36" value="&lt;font style=&quot;vertical-align: inherit&quot;&gt;&lt;font style=&quot;vertical-align: inherit&quot;&gt;Permitir Cadastro&lt;/font&gt;&lt;/font&gt;" style="strokeWidth=2;html=1;shape=mxgraph.flowchart.display;whiteSpace=wrap;" vertex="1" parent="WIyWlLk6GJQsqaUBKTNV-1">
          <mxGeometry x="130" y="800" width="120" height="60" as="geometry" />
        </mxCell>
        <mxCell id="G8KtCLC6d5U8vp29H0CE-40" style="edgeStyle=orthogonalEdgeStyle;rounded=0;orthogonalLoop=1;jettySize=auto;html=1;exitX=0;exitY=0.5;exitDx=0;exitDy=0;exitPerimeter=0;" edge="1" parent="WIyWlLk6GJQsqaUBKTNV-1" source="G8KtCLC6d5U8vp29H0CE-37">
          <mxGeometry relative="1" as="geometry">
            <mxPoint x="540" y="830" as="targetPoint" />
          </mxGeometry>
        </mxCell>
        <mxCell id="G8KtCLC6d5U8vp29H0CE-37" value="&lt;font style=&quot;vertical-align: inherit&quot;&gt;&lt;font style=&quot;vertical-align: inherit&quot;&gt;Não permitido&lt;/font&gt;&lt;/font&gt;" style="strokeWidth=2;html=1;shape=mxgraph.flowchart.display;whiteSpace=wrap;" vertex="1" parent="WIyWlLk6GJQsqaUBKTNV-1">
          <mxGeometry x="530" y="800" width="130" height="60" as="geometry" />
        </mxCell>
        <mxCell id="G8KtCLC6d5U8vp29H0CE-43" style="edgeStyle=orthogonalEdgeStyle;rounded=0;orthogonalLoop=1;jettySize=auto;html=1;" edge="1" parent="WIyWlLk6GJQsqaUBKTNV-1" source="G8KtCLC6d5U8vp29H0CE-42">
          <mxGeometry relative="1" as="geometry">
            <mxPoint x="210" y="1080" as="targetPoint" />
          </mxGeometry>
        </mxCell>
        <mxCell id="G8KtCLC6d5U8vp29H0CE-44" style="edgeStyle=orthogonalEdgeStyle;rounded=0;orthogonalLoop=1;jettySize=auto;html=1;exitX=1;exitY=0.5;exitDx=0;exitDy=0;exitPerimeter=0;" edge="1" parent="WIyWlLk6GJQsqaUBKTNV-1" source="G8KtCLC6d5U8vp29H0CE-42">
          <mxGeometry relative="1" as="geometry">
            <mxPoint x="610" y="1080" as="targetPoint" />
          </mxGeometry>
        </mxCell>
        <mxCell id="G8KtCLC6d5U8vp29H0CE-42" value="&lt;font style=&quot;vertical-align: inherit&quot;&gt;&lt;font style=&quot;vertical-align: inherit&quot;&gt;&lt;font style=&quot;vertical-align: inherit&quot;&gt;&lt;font style=&quot;vertical-align: inherit&quot;&gt;Você é participante ou palestrante?&lt;/font&gt;&lt;/font&gt;&lt;br&gt;&lt;/font&gt;&lt;/font&gt;" style="strokeWidth=2;html=1;shape=mxgraph.flowchart.decision;whiteSpace=wrap;" vertex="1" parent="WIyWlLk6GJQsqaUBKTNV-1">
          <mxGeometry x="310" y="931" width="180" height="100" as="geometry" />
        </mxCell>
        <mxCell id="G8KtCLC6d5U8vp29H0CE-49" style="edgeStyle=orthogonalEdgeStyle;rounded=0;orthogonalLoop=1;jettySize=auto;html=1;exitX=0.5;exitY=1;exitDx=0;exitDy=0;" edge="1" parent="WIyWlLk6GJQsqaUBKTNV-1" source="G8KtCLC6d5U8vp29H0CE-45">
          <mxGeometry relative="1" as="geometry">
            <mxPoint x="210" y="1270" as="targetPoint" />
          </mxGeometry>
        </mxCell>
        <mxCell id="G8KtCLC6d5U8vp29H0CE-45" value="&lt;font style=&quot;vertical-align: inherit&quot;&gt;&lt;font style=&quot;vertical-align: inherit&quot;&gt;Palestrante&lt;/font&gt;&lt;/font&gt;" style="html=1;strokeWidth=2;shape=manualInput;whiteSpace=wrap;rounded=1;size=26;arcSize=11;" vertex="1" parent="WIyWlLk6GJQsqaUBKTNV-1">
          <mxGeometry x="160" y="1080" width="100" height="60" as="geometry" />
        </mxCell>
        <mxCell id="G8KtCLC6d5U8vp29H0CE-51" style="edgeStyle=orthogonalEdgeStyle;rounded=0;orthogonalLoop=1;jettySize=auto;html=1;entryX=1;entryY=0.75;entryDx=0;entryDy=0;" edge="1" parent="WIyWlLk6GJQsqaUBKTNV-1" source="G8KtCLC6d5U8vp29H0CE-46" target="G8KtCLC6d5U8vp29H0CE-47">
          <mxGeometry relative="1" as="geometry" />
        </mxCell>
        <mxCell id="G8KtCLC6d5U8vp29H0CE-46" value="&lt;font style=&quot;vertical-align: inherit&quot;&gt;&lt;font style=&quot;vertical-align: inherit&quot;&gt;Participante&lt;/font&gt;&lt;/font&gt;" style="html=1;strokeWidth=2;shape=manualInput;whiteSpace=wrap;rounded=1;size=26;arcSize=11;" vertex="1" parent="WIyWlLk6GJQsqaUBKTNV-1">
          <mxGeometry x="570" y="1080" width="100" height="70" as="geometry" />
        </mxCell>
        <mxCell id="G8KtCLC6d5U8vp29H0CE-52" style="edgeStyle=orthogonalEdgeStyle;rounded=0;orthogonalLoop=1;jettySize=auto;html=1;exitX=0.5;exitY=1;exitDx=0;exitDy=0;" edge="1" parent="WIyWlLk6GJQsqaUBKTNV-1" source="G8KtCLC6d5U8vp29H0CE-47">
          <mxGeometry relative="1" as="geometry">
            <mxPoint x="320" y="1330" as="targetPoint" />
          </mxGeometry>
        </mxCell>
        <mxCell id="G8KtCLC6d5U8vp29H0CE-53" style="edgeStyle=orthogonalEdgeStyle;rounded=0;orthogonalLoop=1;jettySize=auto;html=1;exitX=0.75;exitY=1;exitDx=0;exitDy=0;" edge="1" parent="WIyWlLk6GJQsqaUBKTNV-1" source="G8KtCLC6d5U8vp29H0CE-47">
          <mxGeometry relative="1" as="geometry">
            <mxPoint x="510" y="1330" as="targetPoint" />
          </mxGeometry>
        </mxCell>
        <mxCell id="G8KtCLC6d5U8vp29H0CE-47" value="&lt;font style=&quot;vertical-align: inherit&quot;&gt;&lt;font style=&quot;vertical-align: inherit&quot;&gt;&lt;font style=&quot;vertical-align: inherit&quot;&gt;&lt;font style=&quot;vertical-align: inherit&quot;&gt;&lt;font style=&quot;vertical-align: inherit&quot;&gt;&lt;font style=&quot;vertical-align: inherit&quot;&gt;Participante &amp;lt; 100 ?&lt;/font&gt;&lt;/font&gt;&lt;/font&gt;&lt;/font&gt;&lt;/font&gt;&lt;/font&gt;" style="rounded=1;whiteSpace=wrap;html=1;absoluteArcSize=1;arcSize=14;strokeWidth=2;" vertex="1" parent="WIyWlLk6GJQsqaUBKTNV-1">
          <mxGeometry x="320" y="1169" width="170" height="100" as="geometry" />
        </mxCell>
        <mxCell id="G8KtCLC6d5U8vp29H0CE-62" style="edgeStyle=orthogonalEdgeStyle;rounded=0;orthogonalLoop=1;jettySize=auto;html=1;exitX=0.5;exitY=1;exitDx=0;exitDy=0;exitPerimeter=0;" edge="1" parent="WIyWlLk6GJQsqaUBKTNV-1" source="G8KtCLC6d5U8vp29H0CE-50">
          <mxGeometry relative="1" as="geometry">
            <mxPoint x="260" y="1460" as="targetPoint" />
          </mxGeometry>
        </mxCell>
        <mxCell id="G8KtCLC6d5U8vp29H0CE-50" value="&lt;font style=&quot;vertical-align: inherit&quot;&gt;&lt;font style=&quot;vertical-align: inherit&quot;&gt;Cadastro Realizado com sucesso&lt;/font&gt;&lt;/font&gt;" style="strokeWidth=2;html=1;shape=mxgraph.flowchart.display;whiteSpace=wrap;" vertex="1" parent="WIyWlLk6GJQsqaUBKTNV-1">
          <mxGeometry x="120" y="1280" width="160" height="60" as="geometry" />
        </mxCell>
        <mxCell id="G8KtCLC6d5U8vp29H0CE-54" value="&lt;font style=&quot;vertical-align: inherit&quot;&gt;&lt;font style=&quot;vertical-align: inherit&quot;&gt;&lt;font style=&quot;vertical-align: inherit&quot;&gt;&lt;font style=&quot;vertical-align: inherit&quot;&gt;Sim&lt;/font&gt;&lt;/font&gt;&lt;/font&gt;&lt;/font&gt;" style="text;html=1;align=center;verticalAlign=middle;resizable=0;points=[];autosize=1;strokeColor=none;" vertex="1" parent="WIyWlLk6GJQsqaUBKTNV-1">
          <mxGeometry x="330" y="1300" width="40" height="20" as="geometry" />
        </mxCell>
        <mxCell id="G8KtCLC6d5U8vp29H0CE-55" value="&lt;font style=&quot;vertical-align: inherit&quot;&gt;&lt;font style=&quot;vertical-align: inherit&quot;&gt;&lt;font style=&quot;vertical-align: inherit&quot;&gt;&lt;font style=&quot;vertical-align: inherit&quot;&gt;Não&lt;/font&gt;&lt;/font&gt;&lt;br&gt;&lt;/font&gt;&lt;/font&gt;" style="text;html=1;align=center;verticalAlign=middle;resizable=0;points=[];autosize=1;strokeColor=none;" vertex="1" parent="WIyWlLk6GJQsqaUBKTNV-1">
          <mxGeometry x="470" y="1300" width="40" height="20" as="geometry" />
        </mxCell>
        <mxCell id="G8KtCLC6d5U8vp29H0CE-61" style="edgeStyle=orthogonalEdgeStyle;rounded=0;orthogonalLoop=1;jettySize=auto;html=1;exitX=0;exitY=0.5;exitDx=0;exitDy=0;exitPerimeter=0;" edge="1" parent="WIyWlLk6GJQsqaUBKTNV-1" source="G8KtCLC6d5U8vp29H0CE-56">
          <mxGeometry relative="1" as="geometry">
            <mxPoint x="240" y="1360" as="targetPoint" />
          </mxGeometry>
        </mxCell>
        <mxCell id="G8KtCLC6d5U8vp29H0CE-63" style="edgeStyle=orthogonalEdgeStyle;rounded=0;orthogonalLoop=1;jettySize=auto;html=1;exitX=0.5;exitY=1;exitDx=0;exitDy=0;exitPerimeter=0;" edge="1" parent="WIyWlLk6GJQsqaUBKTNV-1" source="G8KtCLC6d5U8vp29H0CE-56">
          <mxGeometry relative="1" as="geometry">
            <mxPoint x="320" y="1460" as="targetPoint" />
          </mxGeometry>
        </mxCell>
        <mxCell id="G8KtCLC6d5U8vp29H0CE-56" value="&lt;font style=&quot;vertical-align: inherit&quot;&gt;&lt;font style=&quot;vertical-align: inherit&quot;&gt;Cadastro realizado com sucesso&lt;/font&gt;&lt;/font&gt;" style="strokeWidth=2;html=1;shape=mxgraph.flowchart.display;whiteSpace=wrap;" vertex="1" parent="WIyWlLk6GJQsqaUBKTNV-1">
          <mxGeometry x="250" y="1330" width="140" height="60" as="geometry" />
        </mxCell>
        <mxCell id="G8KtCLC6d5U8vp29H0CE-58" style="edgeStyle=orthogonalEdgeStyle;rounded=0;orthogonalLoop=1;jettySize=auto;html=1;exitX=1;exitY=0.5;exitDx=0;exitDy=0;exitPerimeter=0;" edge="1" parent="WIyWlLk6GJQsqaUBKTNV-1" source="G8KtCLC6d5U8vp29H0CE-57">
          <mxGeometry relative="1" as="geometry">
            <mxPoint x="590" y="1360" as="targetPoint" />
          </mxGeometry>
        </mxCell>
        <mxCell id="G8KtCLC6d5U8vp29H0CE-57" value="&lt;font style=&quot;vertical-align: inherit&quot;&gt;&lt;font style=&quot;vertical-align: inherit&quot;&gt;Erro ao cadastrar, limite de participantes excedidos.&lt;/font&gt;&lt;/font&gt;" style="strokeWidth=2;html=1;shape=mxgraph.flowchart.display;whiteSpace=wrap;" vertex="1" parent="WIyWlLk6GJQsqaUBKTNV-1">
          <mxGeometry x="430" y="1330" width="160" height="60" as="geometry" />
        </mxCell>
        <mxCell id="G8KtCLC6d5U8vp29H0CE-64" value="&lt;font style=&quot;vertical-align: inherit&quot;&gt;&lt;font style=&quot;vertical-align: inherit&quot;&gt;Fim&lt;/font&gt;&lt;/font&gt;" style="strokeWidth=2;html=1;shape=mxgraph.flowchart.start_1;whiteSpace=wrap;" vertex="1" parent="WIyWlLk6GJQsqaUBKTNV-1">
          <mxGeometry x="200" y="1460" width="180" height="60" as="geometry" />
        </mxCell>
      </root>
    </mxGraphModel>
  </diagram>
</mxfile>
